<svg id="Capa_1" enable-background="new 0 0 512.003 512.003" height="512" viewBox="0 0 512.003 512.003" width="512" xmlns="http://www.w3.org/2000/svg"><g id="XMLID_1288_"><g id="XMLID_234_"><g id="XMLID_235_"><path id="XMLID_238_" d="m507.385 231.294-69.866-82.804c20.615-45.682 17.247-100.128-9.267-143.688-2.871-4.718-9.024-6.213-13.741-3.343-2.718 1.654-4.359 4.398-4.719 7.329-22.484 92.075-93.591 162.909-185.838 184.999-48.794 11.685-93.337 36.613-128.815 72.092-34.425 34.424-58.915 77.385-71.014 124.481-6.691 3.657-13.244 7.596-19.64 11.827-4.606 3.048-5.87 9.252-2.823 13.858 1.924 2.907 5.105 4.483 8.35 4.483 1.894 0 3.81-.537 5.508-1.66 24.545-16.237 51.527-27.95 80.196-34.816 33.055-7.915 63.945-21.756 91.813-41.139 4.534-3.154 5.653-9.386 2.5-13.92s-9.385-5.652-13.919-2.5c-25.813 17.955-54.428 30.776-85.051 38.109-14.661 3.51-28.907 8.211-42.666 14.034 27.242-82.449 94.633-144.904 180.221-165.401 14.642-3.506 28.898-8.214 42.645-14.033-7.862 23.731-19.161 46.049-33.756 66.557-3.202 4.499-2.15 10.743 2.349 13.945 1.759 1.252 3.784 1.854 5.79 1.854 3.126 0 6.205-1.462 8.156-4.203 19.405-27.266 33.423-57.488 41.736-89.882 22.624-12.353 43.483-27.916 61.896-46.329 29.229-29.229 51.289-64.615 64.69-103.458 13.191 34.967 11.576 74.455-5.327 107.791-1.816 3.582-1.313 7.902 1.276 10.971l73.735 87.39-28.588 18.808c-4.484 2.95-5.839 8.915-3.071 13.513l11.005 18.276c2.643 4.389 3.245 9.698 1.65 14.567-1.594 4.869-5.219 8.796-9.946 10.771-3.171 1.326-5.439 4.188-6.006 7.579s.648 6.834 3.217 9.119c4.097 3.645 6.058 8.854 5.379 14.296-.678 5.44-3.858 10.011-8.732 12.541l-.616.32c-3.309 1.721-5.385 5.141-5.385 8.871v33.5c0 17.645-14.355 32-32 32h-58.693c-25.676 0-50.661 7.341-72.253 21.23l-53.422 34.359c-4.645 2.987-5.988 9.175-3.001 13.819 1.911 2.972 5.131 4.592 8.42 4.592 1.853 0 3.727-.514 5.4-1.591l53.422-34.359c18.359-11.809 39.603-18.051 61.434-18.051h58.693c28.673 0 52-23.327 52-52v-27.914c8.002-5.876 13.33-14.83 14.579-24.844.948-7.604-.534-15.192-4.066-21.759 4.836-4.352 8.513-9.932 10.583-16.259 3.404-10.397 2.119-21.736-3.524-31.107l-6.048-10.044 20.945-13.78c4.675-3.076 7.817-8.016 8.621-13.554.801-5.535-.807-11.165-4.416-15.443z"/><path id="XMLID_237_" d="m5.097 191.108c1.551.873 3.235 1.288 4.897 1.288 3.494 0 6.887-1.834 8.723-5.096 8.311-14.761 14.529-30.614 18.482-47.12 14.354-59.944 60.509-106.1 120.453-120.454 5.371-1.286 8.683-6.683 7.396-12.054-1.286-5.371-6.687-8.681-12.054-7.396-32.847 7.865-62.833 24.646-86.715 48.529-23.883 23.884-40.665 53.869-48.53 86.716-3.521 14.702-9.059 28.822-16.459 41.966-2.711 4.813-1.006 10.911 3.807 13.621z"/><path id="XMLID_236_" d="m216.502 295.841c-2.63 0-5.21 1.06-7.07 2.92-1.86 1.87-2.93 4.44-2.93 7.07 0 2.64 1.07 5.21 2.93 7.08 1.86 1.859 4.44 2.93 7.07 2.93s5.21-1.07 7.07-2.93c1.86-1.87 2.93-4.44 2.93-7.08 0-2.63-1.07-5.2-2.93-7.07-1.86-1.86-4.43-2.92-7.07-2.92z"/></g></g></g></svg>